<svg width="114" height="15" viewBox="0 0 114 15" fill="none" xmlns="http://www.w3.org/2000/svg">
<path d="M1.985 12V7.44H6.29V5.94H1.985V3.03H6.83V1.53H0.29V12H1.985ZM9.99348 12V7.02C9.99348 6.21 10.7135 5.775 12.0035 5.775H12.6485V4.2H12.2135C10.9685 4.2 10.2935 4.905 10.0685 5.7H9.99348V4.2H8.35848V12H9.99348ZM14.9257 2.805C15.6007 2.805 15.8857 2.445 15.8857 1.95V1.695C15.8857 1.2 15.6007 0.84 14.9257 0.84C14.2507 0.84 13.9507 1.2 13.9507 1.695V1.95C13.9507 2.445 14.2507 2.805 14.9257 2.805ZM14.1007 12H15.7357V4.2H14.1007V12ZM19.0754 9.915C18.3404 9.915 17.9804 10.335 17.9804 10.935V11.175C17.9804 11.655 18.2354 12.03 18.7604 12.135C18.5504 12.87 18.1304 13.425 17.4854 14.07H18.7004C19.6004 13.335 20.1704 12.15 20.1704 11.175V10.935C20.1704 10.335 19.8104 9.915 19.0754 9.915ZM33.2709 12V10.59H30.7209V1.53H28.1409L25.4709 4.425L26.5059 5.355L28.9359 2.76H29.0559V10.59H26.1159V12H33.2709ZM41.905 10.56H36.625L39.085 8.445C40.465 7.26 41.59 6.15 41.59 4.455C41.59 2.64 40.36 1.35 38.23 1.35C36.13 1.35 35.08 2.58 34.645 3.9L36.13 4.47C36.385 3.555 36.94 2.82 38.095 2.82C39.13 2.82 39.79 3.45 39.79 4.455V4.65C39.79 5.61 39.19 6.45 38.14 7.395L34.795 10.38V12H41.905V10.56ZM51.6691 12.18C54.3991 12.18 56.1841 10.29 56.1841 6.765C56.1841 3.24 54.3991 1.35 51.6691 1.35C48.9391 1.35 47.1541 3.24 47.1541 6.765C47.1541 10.29 48.9391 12.18 51.6691 12.18ZM51.6691 10.665C50.0491 10.665 48.9691 9.495 48.9691 7.59V5.94C48.9691 4.035 50.0491 2.865 51.6691 2.865C53.2891 2.865 54.3691 4.035 54.3691 5.94V7.59C54.3691 9.495 53.2891 10.665 51.6691 10.665ZM61.1928 12.18C62.6928 12.18 63.7578 11.475 64.2678 10.2L63.0228 9.54C62.6928 10.32 62.1378 10.83 61.1928 10.83C59.9928 10.83 59.3778 10.005 59.3778 8.805V7.41C59.3778 6.21 59.9928 5.385 61.1928 5.385C62.0778 5.385 62.6328 5.85 62.8578 6.57L64.2078 5.94C63.7428 4.785 62.7528 4.02 61.1928 4.02C58.9428 4.02 57.6528 5.61 57.6528 8.1C57.6528 10.59 58.9428 12.18 61.1928 12.18ZM69.4093 12V10.665H67.8943V5.535H69.5293V4.2H67.8943V2.07H66.4243V3.435C66.4243 3.975 66.2443 4.2 65.7043 4.2H65.0443V5.535H66.2593V10.305C66.2593 11.37 66.8593 12 67.9843 12H69.4093ZM72.3078 9.915C71.5728 9.915 71.2128 10.335 71.2128 10.935V11.175C71.2128 11.655 71.4678 12.03 71.9928 12.135C71.7828 12.87 71.3628 13.425 70.7178 14.07H71.9328C72.8328 13.335 73.4028 12.15 73.4028 11.175V10.935C73.4028 10.335 73.0428 9.915 72.3078 9.915ZM86.1433 10.56H80.8633L83.3233 8.445C84.7033 7.26 85.8283 6.15 85.8283 4.455C85.8283 2.64 84.5983 1.35 82.4683 1.35C80.3683 1.35 79.3183 2.58 78.8833 3.9L80.3683 4.47C80.6233 3.555 81.1783 2.82 82.3333 2.82C83.3683 2.82 84.0283 3.45 84.0283 4.455V4.65C84.0283 5.61 83.4283 6.45 82.3783 7.395L79.0333 10.38V12H86.1433V10.56ZM91.5225 12.18C94.1325 12.18 95.3175 10.185 95.3175 6.765C95.3175 3.345 94.1325 1.35 91.5225 1.35C88.9125 1.35 87.7275 3.345 87.7275 6.765C87.7275 10.185 88.9125 12.18 91.5225 12.18ZM91.5225 10.74C90.0675 10.74 89.5275 9.51 89.5275 7.68V5.85C89.5275 4.02 90.0675 2.79 91.5225 2.79C92.9775 2.79 93.5175 4.02 93.5175 5.85V7.68C93.5175 9.51 92.9775 10.74 91.5225 10.74ZM104.492 12V10.59H101.942V1.53H99.3616L96.6916 4.425L97.7266 5.355L100.157 2.76H100.277V10.59H97.3366V12H104.492ZM109.511 12.18C111.941 12.18 113.261 10.875 113.261 9.15C113.261 7.755 112.421 6.915 111.161 6.57V6.45C112.226 6.075 112.946 5.235 112.946 4.035C112.946 2.43 111.686 1.35 109.511 1.35C107.336 1.35 106.076 2.43 106.076 4.035C106.076 5.235 106.796 6.075 107.861 6.45V6.57C106.601 6.915 105.761 7.755 105.761 9.15C105.761 10.875 107.081 12.18 109.511 12.18ZM109.511 10.815C108.251 10.815 107.531 10.2 107.531 9.165V8.865C107.531 7.83 108.251 7.215 109.511 7.215C110.771 7.215 111.491 7.83 111.491 8.865V9.165C111.491 10.2 110.771 10.815 109.511 10.815ZM109.511 5.91C108.356 5.91 107.726 5.385 107.726 4.44V4.185C107.726 3.24 108.356 2.715 109.511 2.715C110.666 2.715 111.296 3.24 111.296 4.185V4.44C111.296 5.385 110.666 5.91 109.511 5.91Z" fill="black"/>
</svg>
