<svg width="225" height="15" viewBox="0 0 225 15" fill="none" xmlns="http://www.w3.org/2000/svg">
<path d="M5.4 12V10.62H3.96V2.91H5.4V1.53H0.84V2.91H2.265V10.62H0.84V12H5.4ZM9.04523 12V6.78C9.04523 5.865 9.88523 5.43 10.7402 5.43C11.7452 5.43 12.2102 6.045 12.2102 7.26V12H13.8452V7.05C13.8452 5.13 12.9002 4.02 11.3102 4.02C10.1102 4.02 9.45023 4.65 9.12023 5.49H9.04523V4.2H7.41023V12H9.04523ZM17.7464 12V6.78C17.7464 5.865 18.5864 5.43 19.4414 5.43C20.4464 5.43 20.9114 6.045 20.9114 7.26V12H22.5464V7.05C22.5464 5.13 21.6014 4.02 20.0114 4.02C18.8114 4.02 18.1514 4.65 17.8214 5.49H17.7464V4.2H16.1114V12H17.7464ZM27.8726 12.18C30.0476 12.18 31.4576 10.59 31.4576 8.1C31.4576 5.61 30.0476 4.02 27.8726 4.02C25.6976 4.02 24.2876 5.61 24.2876 8.1C24.2876 10.59 25.6976 12.18 27.8726 12.18ZM27.8726 10.83C26.7626 10.83 26.0126 10.14 26.0126 8.76V7.44C26.0126 6.06 26.7626 5.37 27.8726 5.37C28.9826 5.37 29.7326 6.06 29.7326 7.44V8.76C29.7326 10.14 28.9826 10.83 27.8726 10.83ZM36.7772 12L39.4622 4.2H37.9022L36.6872 7.755L35.8922 10.485H35.8022L35.0072 7.755L33.8222 4.2H32.2022L34.8572 12H36.7772ZM47.3361 12V10.665H46.5111V6.75C46.5111 5.01 45.3861 4.02 43.3761 4.02C41.8611 4.02 40.9461 4.665 40.4361 5.535L41.4111 6.42C41.8011 5.805 42.3561 5.355 43.2711 5.355C44.3661 5.355 44.8761 5.91 44.8761 6.855V7.515H43.4661C41.2911 7.515 40.1361 8.31 40.1361 9.855C40.1361 11.265 41.0511 12.18 42.6561 12.18C43.7961 12.18 44.6361 11.67 44.9361 10.695H45.0111C45.1161 11.46 45.5661 12 46.4211 12H47.3361ZM43.1211 10.935C42.3111 10.935 41.8011 10.575 41.8011 9.885V9.615C41.8011 8.94 42.3561 8.565 43.4961 8.565H44.8761V9.69C44.8761 10.455 44.1261 10.935 43.1211 10.935ZM51.9536 12.18C53.4536 12.18 54.5186 11.475 55.0286 10.2L53.7836 9.54C53.4536 10.32 52.8986 10.83 51.9536 10.83C50.7536 10.83 50.1386 10.005 50.1386 8.805V7.41C50.1386 6.21 50.7536 5.385 51.9536 5.385C52.8386 5.385 53.3936 5.85 53.6186 6.57L54.9686 5.94C54.5036 4.785 53.5136 4.02 51.9536 4.02C49.7036 4.02 48.4136 5.61 48.4136 8.1C48.4136 10.59 49.7036 12.18 51.9536 12.18ZM59.5121 12.18C61.0121 12.18 62.0771 11.475 62.5871 10.2L61.3421 9.54C61.0121 10.32 60.4571 10.83 59.5121 10.83C58.3121 10.83 57.6971 10.005 57.6971 8.805V7.41C57.6971 6.21 58.3121 5.385 59.5121 5.385C60.3971 5.385 60.9521 5.85 61.1771 6.57L62.5271 5.94C62.0621 4.785 61.0721 4.02 59.5121 4.02C57.2621 4.02 55.9721 5.61 55.9721 8.1C55.9721 10.59 57.2621 12.18 59.5121 12.18ZM67.1157 12.18C68.5707 12.18 69.7107 11.55 70.2957 10.605L69.3357 9.66C68.8857 10.38 68.2407 10.83 67.2807 10.83C65.9607 10.83 65.2257 9.975 65.2257 8.775V8.52H70.5807V7.905C70.5807 5.745 69.4107 4.02 67.1157 4.02C64.8957 4.02 63.5307 5.61 63.5307 8.1C63.5307 10.59 64.8957 12.18 67.1157 12.18ZM67.1157 5.295C68.1957 5.295 68.8557 6.09 68.8557 7.29V7.44H65.2257V7.335C65.2257 6.135 65.9907 5.295 67.1157 5.295ZM74.0257 12V7.02C74.0257 6.21 74.7457 5.775 76.0357 5.775H76.6807V4.2H76.2457C75.0007 4.2 74.3257 4.905 74.1007 5.7H74.0257V4.2H72.3907V12H74.0257ZM90.1078 12L86.5378 1.53H84.4078L80.8378 12H82.5628L83.4778 9.165H87.3928L88.3378 12H90.1078ZM86.9728 7.71H83.8828L85.3978 3.09H85.4728L86.9728 7.71ZM93.2445 12V6.78C93.2445 5.865 94.0845 5.43 94.9395 5.43C95.9445 5.43 96.4095 6.045 96.4095 7.26V12H98.0445V7.05C98.0445 5.13 97.0995 4.02 95.5095 4.02C94.3095 4.02 93.6495 4.65 93.3195 5.49H93.2445V4.2H91.6095V12H93.2445ZM106.941 12V10.665H106.116V6.75C106.116 5.01 104.991 4.02 102.981 4.02C101.466 4.02 100.551 4.665 100.041 5.535L101.016 6.42C101.406 5.805 101.961 5.355 102.876 5.355C103.971 5.355 104.481 5.91 104.481 6.855V7.515H103.071C100.896 7.515 99.7406 8.31 99.7406 9.855C99.7406 11.265 100.656 12.18 102.261 12.18C103.401 12.18 104.241 11.67 104.541 10.695H104.616C104.721 11.46 105.171 12 106.026 12H106.941ZM102.726 10.935C101.916 10.935 101.406 10.575 101.406 9.885V9.615C101.406 8.94 101.961 8.565 103.101 8.565H104.481V9.69C104.481 10.455 103.731 10.935 102.726 10.935ZM111.258 12V10.665H110.178V0.9H108.543V10.38C108.543 11.385 109.098 12 110.208 12H111.258ZM115.928 8.79L115.433 10.485H115.358L114.908 8.79L113.348 4.2H111.713L114.548 12.345L114.098 13.665H112.778V15H113.723C114.938 15 115.403 14.595 115.778 13.545L119.063 4.2H117.488L115.928 8.79ZM123.993 12V10.665H122.478V5.535H124.113V4.2H122.478V2.07H121.008V3.435C121.008 3.975 120.828 4.2 120.288 4.2H119.628V5.535H120.843V10.305C120.843 11.37 121.443 12 122.568 12H123.993ZM126.712 2.805C127.387 2.805 127.672 2.445 127.672 1.95V1.695C127.672 1.2 127.387 0.84 126.712 0.84C126.037 0.84 125.737 1.2 125.737 1.695V1.95C125.737 2.445 126.037 2.805 126.712 2.805ZM125.887 12H127.522V4.2H125.887V12ZM132.872 12.18C134.372 12.18 135.437 11.475 135.947 10.2L134.702 9.54C134.372 10.32 133.817 10.83 132.872 10.83C131.672 10.83 131.057 10.005 131.057 8.805V7.41C131.057 6.21 131.672 5.385 132.872 5.385C133.757 5.385 134.312 5.85 134.537 6.57L135.887 5.94C135.422 4.785 134.432 4.02 132.872 4.02C130.622 4.02 129.332 5.61 129.332 8.1C129.332 10.59 130.622 12.18 132.872 12.18ZM139.978 12.18C141.853 12.18 143.068 11.175 143.068 9.675C143.068 8.415 142.303 7.665 140.593 7.41L139.873 7.32C139.048 7.185 138.673 6.915 138.673 6.315C138.673 5.73 139.093 5.34 139.993 5.34C140.833 5.34 141.493 5.745 141.898 6.225L142.903 5.265C142.198 4.485 141.403 4.02 139.993 4.02C138.283 4.02 137.098 4.905 137.098 6.42C137.098 7.86 138.073 8.55 139.663 8.745L140.383 8.835C141.193 8.94 141.493 9.315 141.493 9.81C141.493 10.47 141.013 10.86 140.068 10.86C139.138 10.86 138.433 10.44 137.863 9.75L136.813 10.71C137.548 11.625 138.508 12.18 139.978 12.18ZM150.275 12V7.83H153.08C155 7.83 156.125 6.585 156.125 4.68C156.125 2.775 155 1.53 153.08 1.53H148.58V12H150.275ZM150.275 3.015H152.975C153.83 3.015 154.34 3.48 154.34 4.32V5.04C154.34 5.88 153.83 6.345 152.975 6.345H150.275V3.015ZM159.353 12V7.02C159.353 6.21 160.073 5.775 161.363 5.775H162.008V4.2H161.573C160.328 4.2 159.653 4.905 159.428 5.7H159.353V4.2H157.718V12H159.353ZM164.285 2.805C164.96 2.805 165.245 2.445 165.245 1.95V1.695C165.245 1.2 164.96 0.84 164.285 0.84C163.61 0.84 163.31 1.2 163.31 1.695V1.95C163.31 2.445 163.61 2.805 164.285 2.805ZM163.46 12H165.095V4.2H163.46V12ZM171.045 12L173.73 4.2H172.17L170.955 7.755L170.16 10.485H170.07L169.275 7.755L168.09 4.2H166.47L169.125 12H171.045ZM181.604 12V10.665H180.779V6.75C180.779 5.01 179.654 4.02 177.644 4.02C176.129 4.02 175.214 4.665 174.704 5.535L175.679 6.42C176.069 5.805 176.624 5.355 177.539 5.355C178.634 5.355 179.144 5.91 179.144 6.855V7.515H177.734C175.559 7.515 174.404 8.31 174.404 9.855C174.404 11.265 175.319 12.18 176.924 12.18C178.064 12.18 178.904 11.67 179.204 10.695H179.279C179.384 11.46 179.834 12 180.689 12H181.604ZM177.389 10.935C176.579 10.935 176.069 10.575 176.069 9.885V9.615C176.069 8.94 176.624 8.565 177.764 8.565H179.144V9.69C179.144 10.455 178.394 10.935 177.389 10.935ZM186.747 12V10.665H185.232V5.535H186.867V4.2H185.232V2.07H183.762V3.435C183.762 3.975 183.582 4.2 183.042 4.2H182.382V5.535H183.597V10.305C183.597 11.37 184.197 12 185.322 12H186.747ZM191.642 12.18C193.097 12.18 194.237 11.55 194.822 10.605L193.862 9.66C193.412 10.38 192.767 10.83 191.807 10.83C190.487 10.83 189.752 9.975 189.752 8.775V8.52H195.107V7.905C195.107 5.745 193.937 4.02 191.642 4.02C189.422 4.02 188.057 5.61 188.057 8.1C188.057 10.59 189.422 12.18 191.642 12.18ZM191.642 5.295C192.722 5.295 193.382 6.09 193.382 7.29V7.44H189.752V7.335C189.752 6.135 190.517 5.295 191.642 5.295ZM206.537 12V10.5H202.277V1.53H200.582V12H206.537ZM211.532 12V10.665H210.017V5.535H211.652V4.2H210.017V2.07H208.547V3.435C208.547 3.975 208.367 4.2 207.827 4.2H207.167V5.535H208.382V10.305C208.382 11.37 208.982 12 210.107 12H211.532ZM218.272 12H219.907V0.9H218.272V5.49H218.197C217.867 4.56 217.042 4.02 216.007 4.02C214.042 4.02 212.902 5.535 212.902 8.1C212.902 10.665 214.042 12.18 216.007 12.18C217.042 12.18 217.867 11.625 218.197 10.71H218.272V12ZM216.502 10.77C215.377 10.77 214.627 9.975 214.627 8.775V7.425C214.627 6.225 215.377 5.43 216.502 5.43C217.492 5.43 218.272 5.97 218.272 6.765V9.435C218.272 10.23 217.492 10.77 216.502 10.77ZM223.249 12.18C223.984 12.18 224.344 11.745 224.344 11.16V10.935C224.344 10.35 223.984 9.915 223.249 9.915C222.514 9.915 222.154 10.35 222.154 10.935V11.16C222.154 11.745 222.514 12.18 223.249 12.18Z" fill="black"/>
</svg>
