<svg width="83" height="15" viewBox="0 0 83 15" fill="none" xmlns="http://www.w3.org/2000/svg">
<path d="M6.53 12H8.42V1.53H6.8V9.54H6.755L5.6 7.32L2.18 1.53H0.29V12H1.91V3.99H1.955L3.11 6.21L6.53 12ZM13.938 12.18C16.113 12.18 17.523 10.59 17.523 8.1C17.523 5.61 16.113 4.02 13.938 4.02C11.763 4.02 10.353 5.61 10.353 8.1C10.353 10.59 11.763 12.18 13.938 12.18ZM13.938 10.83C12.828 10.83 12.078 10.14 12.078 8.76V7.44C12.078 6.06 12.828 5.37 13.938 5.37C15.048 5.37 15.798 6.06 15.798 7.44V8.76C15.798 10.14 15.048 10.83 13.938 10.83ZM20.1698 2.805C20.8448 2.805 21.1298 2.445 21.1298 1.95V1.695C21.1298 1.2 20.8448 0.84 20.1698 0.84C19.4948 0.84 19.1948 1.2 19.1948 1.695V1.95C19.1948 2.445 19.4948 2.805 20.1698 2.805ZM19.3448 12H20.9798V4.2H19.3448V12ZM28.2195 12H29.8545V0.9H28.2195V5.49H28.1445C27.8145 4.56 26.9895 4.02 25.9545 4.02C23.9895 4.02 22.8495 5.535 22.8495 8.1C22.8495 10.665 23.9895 12.18 25.9545 12.18C26.9895 12.18 27.8145 11.625 28.1445 10.71H28.2195V12ZM26.4495 10.77C25.3245 10.77 24.5745 9.975 24.5745 8.775V7.425C24.5745 6.225 25.3245 5.43 26.4495 5.43C27.4395 5.43 28.2195 5.97 28.2195 6.765V9.435C28.2195 10.23 27.4395 10.77 26.4495 10.77ZM38.8215 12V10.665H37.9965V6.75C37.9965 5.01 36.8715 4.02 34.8615 4.02C33.3465 4.02 32.4315 4.665 31.9215 5.535L32.8965 6.42C33.2865 5.805 33.8415 5.355 34.7565 5.355C35.8515 5.355 36.3615 5.91 36.3615 6.855V7.515H34.9515C32.7765 7.515 31.6215 8.31 31.6215 9.855C31.6215 11.265 32.5365 12.18 34.1415 12.18C35.2815 12.18 36.1215 11.67 36.4215 10.695H36.4965C36.6015 11.46 37.0515 12 37.9065 12H38.8215ZM34.6065 10.935C33.7965 10.935 33.2865 10.575 33.2865 9.885V9.615C33.2865 8.94 33.8415 8.565 34.9815 8.565H36.3615V9.69C36.3615 10.455 35.6115 10.935 34.6065 10.935ZM41.5754 9.915C40.8404 9.915 40.4804 10.335 40.4804 10.935V11.175C40.4804 11.655 40.7354 12.03 41.2604 12.135C41.0504 12.87 40.6304 13.425 39.9854 14.07H41.2004C42.1004 13.335 42.6704 12.15 42.6704 11.175V10.935C42.6704 10.335 42.3104 9.915 41.5754 9.915ZM52.6959 12V10.62H51.2559V2.91H52.6959V1.53H48.1359V2.91H49.5609V10.62H48.1359V12H52.6959ZM56.3411 12V6.78C56.3411 5.865 57.1811 5.43 58.0361 5.43C59.0411 5.43 59.5061 6.045 59.5061 7.26V12H61.1411V7.05C61.1411 5.13 60.1961 4.02 58.6061 4.02C57.4061 4.02 56.7461 4.65 56.4161 5.49H56.3411V4.2H54.7061V12H56.3411ZM68.3123 12H69.9473V0.9H68.3123V5.49H68.2373C67.9073 4.56 67.0823 4.02 66.0473 4.02C64.0823 4.02 62.9423 5.535 62.9423 8.1C62.9423 10.665 64.0823 12.18 66.0473 12.18C67.0823 12.18 67.9073 11.625 68.2373 10.71H68.3123V12ZM66.5423 10.77C65.4173 10.77 64.6673 9.975 64.6673 8.775V7.425C64.6673 6.225 65.4173 5.43 66.5423 5.43C67.5323 5.43 68.3123 5.97 68.3123 6.765V9.435C68.3123 10.23 67.5323 10.77 66.5423 10.77ZM73.1093 2.805C73.7843 2.805 74.0693 2.445 74.0693 1.95V1.695C74.0693 1.2 73.7843 0.84 73.1093 0.84C72.4343 0.84 72.1343 1.2 72.1343 1.695V1.95C72.1343 2.445 72.4343 2.805 73.1093 2.805ZM72.2843 12H73.9193V4.2H72.2843V12ZM82.884 12V10.665H82.059V6.75C82.059 5.01 80.934 4.02 78.924 4.02C77.409 4.02 76.494 4.665 75.984 5.535L76.959 6.42C77.349 5.805 77.904 5.355 78.819 5.355C79.914 5.355 80.424 5.91 80.424 6.855V7.515H79.014C76.839 7.515 75.684 8.31 75.684 9.855C75.684 11.265 76.599 12.18 78.204 12.18C79.344 12.18 80.184 11.67 80.484 10.695H80.559C80.664 11.46 81.114 12 81.969 12H82.884ZM78.669 10.935C77.859 10.935 77.349 10.575 77.349 9.885V9.615C77.349 8.94 77.904 8.565 79.044 8.565H80.424V9.69C80.424 10.455 79.674 10.935 78.669 10.935Z" fill="black"/>
</svg>
