<svg width="127" height="15" viewBox="0 0 127 15" fill="none" xmlns="http://www.w3.org/2000/svg">
<path d="M9.6 12L6.03 1.53H3.9L0.33 12H2.055L2.97 9.165H6.885L7.83 12H9.6ZM6.465 7.71H3.375L4.89 3.09H4.965L6.465 7.71ZM11.1016 12H12.7366V6.765C12.7366 5.865 13.5766 5.43 14.4316 5.43C15.4366 5.43 15.9016 6.045 15.9016 7.245V12H17.5366V7.05C17.5366 5.13 16.5916 4.02 15.0016 4.02C13.8016 4.02 13.1416 4.65 12.8116 5.49H12.7366V0.9H11.1016V12ZM21.4378 12V6.765C21.4378 5.865 22.2328 5.43 23.0428 5.43C24.0028 5.43 24.4678 6.03 24.4678 7.245V12H26.1028V6.765C26.1028 5.865 26.8678 5.43 27.6928 5.43C28.6828 5.43 29.1328 6.045 29.1328 7.245V12H30.7678V7.05C30.7678 5.13 29.8528 4.02 28.3078 4.02C27.0478 4.02 26.2378 4.74 25.9528 5.61H25.9078C25.5328 4.53 24.6478 4.02 23.5978 4.02C22.4128 4.02 21.8278 4.68 21.5128 5.49H21.4378V4.2H19.8028V12H21.4378ZM36.0904 12.18C37.5454 12.18 38.6854 11.55 39.2704 10.605L38.3104 9.66C37.8604 10.38 37.2154 10.83 36.2554 10.83C34.9354 10.83 34.2004 9.975 34.2004 8.775V8.52H39.5554V7.905C39.5554 5.745 38.3854 4.02 36.0904 4.02C33.8704 4.02 32.5054 5.61 32.5054 8.1C32.5054 10.59 33.8704 12.18 36.0904 12.18ZM36.0904 5.295C37.1704 5.295 37.8304 6.09 37.8304 7.29V7.44H34.2004V7.335C34.2004 6.135 34.9654 5.295 36.0904 5.295ZM46.2703 12H47.9053V0.9H46.2703V5.49H46.1953C45.8653 4.56 45.0403 4.02 44.0053 4.02C42.0403 4.02 40.9003 5.535 40.9003 8.1C40.9003 10.665 42.0403 12.18 44.0053 12.18C45.0403 12.18 45.8653 11.625 46.1953 10.71H46.2703V12ZM44.5003 10.77C43.3753 10.77 42.6253 9.975 42.6253 8.775V7.425C42.6253 6.225 43.3753 5.43 44.5003 5.43C45.4903 5.43 46.2703 5.97 46.2703 6.765V9.435C46.2703 10.23 45.4903 10.77 44.5003 10.77ZM56.8723 12V10.665H56.0473V6.75C56.0473 5.01 54.9223 4.02 52.9123 4.02C51.3973 4.02 50.4823 4.665 49.9723 5.535L50.9473 6.42C51.3373 5.805 51.8923 5.355 52.8073 5.355C53.9023 5.355 54.4123 5.91 54.4123 6.855V7.515H53.0023C50.8273 7.515 49.6723 8.31 49.6723 9.855C49.6723 11.265 50.5873 12.18 52.1923 12.18C53.3323 12.18 54.1723 11.67 54.4723 10.695H54.5473C54.6523 11.46 55.1023 12 55.9573 12H56.8723ZM52.6573 10.935C51.8473 10.935 51.3373 10.575 51.3373 9.885V9.615C51.3373 8.94 51.8923 8.565 53.0323 8.565H54.4123V9.69C54.4123 10.455 53.6623 10.935 52.6573 10.935ZM58.4747 12H60.1097V10.71H60.1847C60.5147 11.625 61.3397 12.18 62.3747 12.18C64.3397 12.18 65.4797 10.665 65.4797 8.1C65.4797 5.535 64.3397 4.02 62.3747 4.02C61.3397 4.02 60.5147 4.56 60.1847 5.49H60.1097V0.9H58.4747V12ZM61.8797 10.77C60.8897 10.77 60.1097 10.23 60.1097 9.435V6.765C60.1097 5.97 60.8897 5.43 61.8797 5.43C63.0047 5.43 63.7547 6.225 63.7547 7.425V8.775C63.7547 9.975 63.0047 10.77 61.8797 10.77ZM73.9816 12V10.665H73.1566V6.75C73.1566 5.01 72.0316 4.02 70.0216 4.02C68.5066 4.02 67.5916 4.665 67.0816 5.535L68.0566 6.42C68.4466 5.805 69.0016 5.355 69.9166 5.355C71.0116 5.355 71.5216 5.91 71.5216 6.855V7.515H70.1116C67.9366 7.515 66.7816 8.31 66.7816 9.855C66.7816 11.265 67.6966 12.18 69.3016 12.18C70.4416 12.18 71.2816 11.67 71.5816 10.695H71.6566C71.7616 11.46 72.2116 12 73.0666 12H73.9816ZM69.7666 10.935C68.9566 10.935 68.4466 10.575 68.4466 9.885V9.615C68.4466 8.94 69.0016 8.565 70.1416 8.565H71.5216V9.69C71.5216 10.455 70.7716 10.935 69.7666 10.935ZM80.4891 12H82.1241V0.9H80.4891V5.49H80.4141C80.0841 4.56 79.2591 4.02 78.2241 4.02C76.2591 4.02 75.1191 5.535 75.1191 8.1C75.1191 10.665 76.2591 12.18 78.2241 12.18C79.2591 12.18 80.0841 11.625 80.4141 10.71H80.4891V12ZM78.7191 10.77C77.5941 10.77 76.8441 9.975 76.8441 8.775V7.425C76.8441 6.225 77.5941 5.43 78.7191 5.43C79.7091 5.43 80.4891 5.97 80.4891 6.765V9.435C80.4891 10.23 79.7091 10.77 78.7191 10.77ZM85.466 9.915C84.731 9.915 84.371 10.335 84.371 10.935V11.175C84.371 11.655 84.626 12.03 85.151 12.135C84.941 12.87 84.521 13.425 83.876 14.07H85.091C85.991 13.335 86.561 12.15 86.561 11.175V10.935C86.561 10.335 86.201 9.915 85.466 9.915ZM96.5865 12V10.62H95.1465V2.91H96.5865V1.53H92.0265V2.91H93.4515V10.62H92.0265V12H96.5865ZM100.232 12V6.78C100.232 5.865 101.072 5.43 101.927 5.43C102.932 5.43 103.397 6.045 103.397 7.26V12H105.032V7.05C105.032 5.13 104.087 4.02 102.497 4.02C101.297 4.02 100.637 4.65 100.307 5.49H100.232V4.2H98.5968V12H100.232ZM112.203 12H113.838V0.9H112.203V5.49H112.128C111.798 4.56 110.973 4.02 109.938 4.02C107.973 4.02 106.833 5.535 106.833 8.1C106.833 10.665 107.973 12.18 109.938 12.18C110.973 12.18 111.798 11.625 112.128 10.71H112.203V12ZM110.433 10.77C109.308 10.77 108.558 9.975 108.558 8.775V7.425C108.558 6.225 109.308 5.43 110.433 5.43C111.423 5.43 112.203 5.97 112.203 6.765V9.435C112.203 10.23 111.423 10.77 110.433 10.77ZM117 2.805C117.675 2.805 117.96 2.445 117.96 1.95V1.695C117.96 1.2 117.675 0.84 117 0.84C116.325 0.84 116.025 1.2 116.025 1.695V1.95C116.025 2.445 116.325 2.805 117 2.805ZM116.175 12H117.81V4.2H116.175V12ZM126.775 12V10.665H125.95V6.75C125.95 5.01 124.825 4.02 122.815 4.02C121.3 4.02 120.385 4.665 119.875 5.535L120.85 6.42C121.24 5.805 121.795 5.355 122.71 5.355C123.805 5.355 124.315 5.91 124.315 6.855V7.515H122.905C120.73 7.515 119.575 8.31 119.575 9.855C119.575 11.265 120.49 12.18 122.095 12.18C123.235 12.18 124.075 11.67 124.375 10.695H124.45C124.555 11.46 125.005 12 125.86 12H126.775ZM122.56 10.935C121.75 10.935 121.24 10.575 121.24 9.885V9.615C121.24 8.94 121.795 8.565 122.935 8.565H124.315V9.69C124.315 10.455 123.565 10.935 122.56 10.935Z" fill="black"/>
</svg>
